# xmcd
#
# Track frame offsets:
#	183
#	15220
#	34833
#	54608
#	73058
#	88433
#	103308
#	119133
#	130258
#	145358
#
# Disc length: 2157 seconds
#
# Revision: 5
# Processed by: cddbd v1.5.2PL0 Copyright (c) Steve Scherf et al.
# Submitted via: EZCDAudioConverter 6.0.3.1
#
DISCID=99086b0a
DTITLE=Mink Deville - Sportin' Life
DYEAR=1985
DGENRE=Blues
TTITLE0=In The Heart Of The City
TTITLE1=I Must Be Dreaming
TTITLE2=Italian Shoes
TTITLE3=Slip Away
TTITLE4=When You Walk My Way
TTITLE5=A Woman's Touch
TTITLE6=Easy Street
TTITLE7=Little By Little
TTITLE8=There's No Living (Without Your Loving)
TTITLE9=Something Beautiful Dying
EXTD=
EXTT0=
EXTT1=
EXTT2=
EXTT3=
EXTT4=
EXTT5=
EXTT6=
EXTT7=
EXTT8=
EXTT9=
PLAYORDER=
